<?xml version="1.0" encoding="UTF-8" standalone="no"?>
<!-- Created with Inkscape (http://www.inkscape.org/) -->

<svg
   xmlns:dc="http://purl.org/dc/elements/1.1/"
   xmlns:cc="http://creativecommons.org/ns#"
   xmlns:rdf="http://www.w3.org/1999/02/22-rdf-syntax-ns#"
   xmlns:svg="http://www.w3.org/2000/svg"
   xmlns="http://www.w3.org/2000/svg"
   xmlns:xlink="http://www.w3.org/1999/xlink"
   xmlns:sodipodi="http://sodipodi.sourceforge.net/DTD/sodipodi-0.dtd"
   xmlns:inkscape="http://www.inkscape.org/namespaces/inkscape"
   inkscape:export-ydpi="90.000000"
   inkscape:export-xdpi="90.000000"
   inkscape:export-filename="/home/jimmac/Desktop/wi-fi.png"
   width="48px"
   height="48px"
   id="svg11300"
   sodipodi:version="0.32"
   inkscape:version="0.48.1 r9760"
   sodipodi:docname="tomdroid-5.svg"
   inkscape:output_extension="org.inkscape.output.svg.inkscape"
   sodipodi:modified="true"
   version="1.1">
  <defs
     id="defs3">
    <inkscape:path-effect
       effect="spiro"
       id="path-effect4244"
       is_visible="true" />
    <linearGradient
       id="linearGradient2994">
      <stop
         id="stop2996"
         offset="0"
         style="stop-color:#000000;stop-opacity:1;" />
      <stop
         id="stop2998"
         offset="1"
         style="stop-color:#c9c9c9;stop-opacity:1;" />
    </linearGradient>
    <linearGradient
       inkscape:collect="always"
       xlink:href="#linearGradient2994"
       id="linearGradient2560"
       gradientUnits="userSpaceOnUse"
       gradientTransform="translate(-5.825542,0.125)"
       x1="25.71875"
       y1="31.046875"
       x2="25.514589"
       y2="30.703125" />
    <linearGradient
       id="linearGradient2984"
       inkscape:collect="always">
      <stop
         id="stop2986"
         offset="0"
         style="stop-color:#e7e2b8;stop-opacity:1;" />
      <stop
         id="stop2988"
         offset="1"
         style="stop-color:#e7e2b8;stop-opacity:0;" />
    </linearGradient>
    <radialGradient
       inkscape:collect="always"
       xlink:href="#linearGradient2984"
       id="radialGradient2558"
       gradientUnits="userSpaceOnUse"
       gradientTransform="matrix(2.923565,0,0,2.029717,-61.55532,-27.88417)"
       cx="29.053354"
       cy="27.640751"
       fx="29.053354"
       fy="27.640751"
       r="3.2408544" />
    <linearGradient
       id="linearGradient2974">
      <stop
         id="stop2976"
         offset="0"
         style="stop-color:#c1c1c1;stop-opacity:1;" />
      <stop
         id="stop2978"
         offset="1"
         style="stop-color:#acacac;stop-opacity:1;" />
    </linearGradient>
    <linearGradient
       inkscape:collect="always"
       xlink:href="#linearGradient2974"
       id="linearGradient2556"
       gradientUnits="userSpaceOnUse"
       gradientTransform="translate(-5.669292,0)"
       x1="46"
       y1="19.8125"
       x2="47.6875"
       y2="22.625" />
    <linearGradient
       id="linearGradient2966">
      <stop
         id="stop2968"
         offset="0"
         style="stop-color:#ffd1d1;stop-opacity:1;" />
      <stop
         style="stop-color:#ff1d1d;stop-opacity:1;"
         offset="0.5"
         id="stop3006" />
      <stop
         id="stop2970"
         offset="1"
         style="stop-color:#6f0000;stop-opacity:1;" />
    </linearGradient>
    <linearGradient
       inkscape:collect="always"
       xlink:href="#linearGradient2966"
       id="linearGradient2554"
       gradientUnits="userSpaceOnUse"
       gradientTransform="translate(-5.669292,0)"
       x1="48.90625"
       y1="17.376184"
       x2="50.988335"
       y2="22.250591" />
    <radialGradient
       inkscape:collect="always"
       xlink:href="#linearGradient2865"
       id="radialGradient2552"
       gradientUnits="userSpaceOnUse"
       gradientTransform="matrix(1,0,0,0.348243,0,26.35543)"
       cx="23.5625"
       cy="40.4375"
       fx="23.5625"
       fy="40.4375"
       r="19.5625" />
    <linearGradient
       inkscape:collect="always"
       id="linearGradient6417">
      <stop
         style="stop-color:black;stop-opacity:1;"
         offset="0"
         id="stop6419" />
      <stop
         style="stop-color:black;stop-opacity:0;"
         offset="1"
         id="stop6421" />
    </linearGradient>
    <linearGradient
       inkscape:collect="always"
       id="linearGradient6407">
      <stop
         style="stop-color:white;stop-opacity:1;"
         offset="0"
         id="stop6409" />
      <stop
         style="stop-color:white;stop-opacity:0;"
         offset="1"
         id="stop6411" />
    </linearGradient>
    <linearGradient
       id="linearGradient6377">
      <stop
         style="stop-color:#fff27e;stop-opacity:1;"
         offset="0"
         id="stop6379" />
      <stop
         style="stop-color:#edd400;stop-opacity:1;"
         offset="1"
         id="stop6381" />
    </linearGradient>
    <linearGradient
       inkscape:collect="always"
       id="linearGradient5609">
      <stop
         style="stop-color:white;stop-opacity:1;"
         offset="0"
         id="stop5611" />
      <stop
         style="stop-color:white;stop-opacity:0;"
         offset="1"
         id="stop5613" />
    </linearGradient>
    <linearGradient
       inkscape:collect="always"
       id="linearGradient2865">
      <stop
         style="stop-color:#000000;stop-opacity:1;"
         offset="0"
         id="stop2867" />
      <stop
         style="stop-color:#000000;stop-opacity:0;"
         offset="1"
         id="stop2869" />
    </linearGradient>
    <linearGradient
       inkscape:collect="always"
       xlink:href="#linearGradient5609"
       id="linearGradient5615"
       x1="26.213203"
       y1="14.08672"
       x2="26.130388"
       y2="67.031342"
       gradientUnits="userSpaceOnUse"
       gradientTransform="matrix(0.90135953,0,0,0.94440581,1.9473958,1.371962)" />
    <radialGradient
       inkscape:collect="always"
       xlink:href="#linearGradient6377"
       id="radialGradient6405"
       gradientUnits="userSpaceOnUse"
       gradientTransform="matrix(1.5050109,0,1.5345205e-8,1.9614971,-25.133441,-36.693597)"
       cx="45.150326"
       cy="35.915409"
       fx="45.150326"
       fy="35.915409"
       r="21.626934" />
    <radialGradient
       inkscape:collect="always"
       xlink:href="#linearGradient6407"
       id="radialGradient6413"
       cx="43.875"
       cy="35.90107"
       fx="43.875"
       fy="35.90107"
       r="20.21875"
       gradientTransform="matrix(9.7241373,-1.0744104e-7,0,18.970946,-385.27052,-653.71305)"
       gradientUnits="userSpaceOnUse" />
    <radialGradient
       inkscape:collect="always"
       xlink:href="#linearGradient6417"
       id="radialGradient6423"
       cx="39.907337"
       cy="31.780704"
       fx="39.907337"
       fy="31.780704"
       r="5.2591065"
       gradientTransform="matrix(0.90135953,0,0,0.34125633,2.1216252,26.218811)"
       gradientUnits="userSpaceOnUse" />
  </defs>
  <sodipodi:namedview
     stroke="#c4a000"
     fill="#edd400"
     id="base"
     pagecolor="#ffffff"
     bordercolor="#666666"
     borderopacity="0.25490196"
     inkscape:pageopacity="0.0"
     inkscape:pageshadow="2"
     inkscape:zoom="8.1169643"
     inkscape:cx="24.289511"
     inkscape:cy="34.422952"
     inkscape:current-layer="layer1"
     showgrid="true"
     inkscape:grid-bbox="true"
     inkscape:document-units="px"
     inkscape:showpageshadow="false"
     inkscape:window-width="1440"
     inkscape:window-height="848"
     inkscape:window-x="0"
     inkscape:window-y="26"
     inkscape:window-maximized="1" />
  <metadata
     id="metadata4">
    <rdf:RDF>
      <cc:Work
         rdf:about="">
        <dc:format>image/svg+xml</dc:format>
        <dc:type
           rdf:resource="http://purl.org/dc/dcmitype/StillImage" />
        <dc:creator>
          <cc:Agent>
            <dc:title>Jakub Steiner</dc:title>
          </cc:Agent>
        </dc:creator>
        <dc:source>http://jimmac.musichall.cz</dc:source>
        <cc:license
           rdf:resource="http://creativecommons.org/licenses/GPL/2.0/" />
        <dc:title>Tomboy</dc:title>
      </cc:Work>
      <cc:License
         rdf:about="http://creativecommons.org/licenses/GPL/2.0/">
        <cc:permits
           rdf:resource="http://web.resource.org/cc/Reproduction" />
        <cc:permits
           rdf:resource="http://web.resource.org/cc/Distribution" />
        <cc:requires
           rdf:resource="http://web.resource.org/cc/Notice" />
        <cc:permits
           rdf:resource="http://web.resource.org/cc/DerivativeWorks" />
        <cc:requires
           rdf:resource="http://web.resource.org/cc/ShareAlike" />
        <cc:requires
           rdf:resource="http://web.resource.org/cc/SourceCode" />
      </cc:License>
    </rdf:RDF>
  </metadata>
  <g
     id="layer1"
     inkscape:label="Layer 1"
     inkscape:groupmode="layer">
    <path
       style="color:#000000;fill:#edd400;fill-opacity:1;fill-rule:evenodd;stroke:#c4a000;stroke-width:0.9226315;stroke-linecap:butt;stroke-linejoin:miter;stroke-miterlimit:4;stroke-opacity:1;stroke-dashoffset:0;marker:none;visibility:visible;display:inline;overflow:visible"
       d="m 11.232707,15.156517 25.823278,0.333897 c 0.687356,0 1.12121,0.544588 1.240715,1.127466 l 4.010738,22.372355 -0.0015,2.428313 c 0.0924,0.624618 -0.306961,0.97347 -0.994316,0.97347 l -34.0880951,10e-7 c -0.6873559,0 -1.2099148,-0.441251 -1.2099148,-1.065869 L 5.9163968,39.24801 9.991992,16.283983 c 0.278844,-0.624617 0.553359,-1.127466 1.240715,-1.127466 z"
       id="rect1975"
       sodipodi:nodetypes="ccccccccccc"
       inkscape:connector-curvature="0" />
    <rect
       style="opacity:0.37078654;color:#000000;fill:#f57900;fill-opacity:1;fill-rule:evenodd;stroke:none;stroke-width:1;marker:none;visibility:visible;display:inline;overflow:visible"
       id="rect2851"
       width="35.455719"
       height="2.8450425"
       x="4.0179882"
       y="39.145664"
       rx="0.58384097"
       ry="0.59698707"
       transform="matrix(1,0,0.05931008,0.99823961,0,0)" />
    <path
       style="opacity:0.4831461;color:#000000;fill:none;stroke:url(#linearGradient5615);stroke-width:0.9226315;stroke-linecap:butt;stroke-linejoin:miter;stroke-miterlimit:4;stroke-opacity:1;stroke-dashoffset:0;marker:none;visibility:visible;display:inline;overflow:visible"
       d="m 11.242666,16.098791 c -0.13639,0 -0.08965,-0.02526 -0.140837,0.02951 -0.04586,0.04907 -0.140443,0.259791 -0.253508,0.501716 -0.01314,0.02811 -0.01459,0.02861 -0.02817,0.05903 l -3.5668221,20.846774 -0.3920164,1.670652 0.012757,2.03327 c 0.00351,0.171334 0.096029,0.269476 0.3688096,0.269476 l 33.8009826,0 c 0.272781,0 0.36881,-0.04306 0.36881,-0.08468 0.03187,-0.695303 -0.0329,-1.665364 -0.01542,-2.250428 C 41.312909,38.776664 37.41026,16.836608 37.41026,16.836608 37.35929,16.587994 37.257412,16.42343 37.044083,16.42343 z"
       id="path4730"
       inkscape:connector-curvature="0"
       sodipodi:nodetypes="cscccccssccccc" />
    <path
       style="opacity:0.46629214;color:#000000;fill:url(#radialGradient6423);fill-opacity:1;fill-rule:evenodd;stroke:none;stroke-width:1;marker:none;visibility:visible;display:inline;overflow:visible"
       d="M 41.956464,38.858879 C 41.614561,37.67334 41.159768,35.269477 41.159768,35.269477 l -8.046637,3.005081 c 5.178529,0 7.727958,-0.250423 8.843333,0.584321 z"
       id="path6415"
       sodipodi:nodetypes="cccc"
       inkscape:connector-curvature="0" />
    <path
       style="opacity:0.26404497;color:#000000;fill:#ffffff;fill-opacity:1;fill-rule:evenodd;stroke:none;stroke-width:1;marker:none;visibility:visible;display:inline;overflow:visible"
       d="m 6.4123084,39.55266 c 0,0 0.1369899,-0.458059 0.639286,-0.496231 l 34.1104656,0 c 0.684951,0 0.730614,0.648916 0.730614,0.648916 0,0 0.02143,-1.398862 -1.165817,-1.398862 l -33.0637439,0 c -0.9132654,0.07635 -1.2508047,0.673602 -1.2508047,1.246177 z"
       id="path6361"
       sodipodi:nodetypes="ccccccc"
       inkscape:connector-curvature="0" />
    <path
       sodipodi:nodetypes="cczczcccc"
       id="path2524"
       d="M 7.0200945,6.9774567 6.1372661,37.25317 c 0,0 19.5278669,0.592911 26.5620499,0.592911 7.193362,0 10.054725,-4.770689 10.054725,-4.770689 0,0 -0.907437,-0.728821 -2.095759,-7.982249 L 38.491608,8.2174752 C 38.073881,6.3107528 37.719858,5.5437142 36.90847,5.5556366 l -25.040896,0 C 9.3704632,5.5764005 7.0992694,5.2940562 7.0200945,6.9774567 z"
       style="fill:url(#radialGradient6405);fill-opacity:1;fill-rule:evenodd;stroke:#c4a000;stroke-width:1.20358479px;stroke-linecap:butt;stroke-linejoin:miter;stroke-opacity:1"
       inkscape:connector-curvature="0" />
    <path
       style="opacity:0.46629214;fill:none;stroke:url(#radialGradient6413);stroke-width:1.2195574px;stroke-linecap:butt;stroke-linejoin:miter;stroke-opacity:1"
       d="M 9.4686749,6.7467557 C 9.2451367,6.8753027 7.9485917,6.6797393 8.2038507,7.4190734 L 7.3617145,36.108446 c 1.5140685,0.01637 18.4680775,0.512964 25.1345285,0.512964 3.45473,0 5.692862,-1.014728 7.185295,-2.166478 0.94187,-0.726863 1.343273,-1.134692 1.63294,-1.526636 -0.438402,-1.314797 -1.2052,-3.141051 -1.809428,-6.994211 -5.84e-4,-0.03466 -5.84e-4,-0.06937 0,-0.104044 0,0 -2.060472,-16.7155091 -2.12219,-17.2171936 C 37.191652,7.7010354 37.041614,7.1967546 36.964008,7.0523806 36.886396,6.9079977 36.961666,6.8001947 36.718448,6.803931 27.836215,6.5602236 17.729657,6.916824 9.4686749,6.7467557 z"
       id="path6403"
       inkscape:connector-curvature="0"
       sodipodi:nodetypes="cccssccccscc" />
    <path
       sodipodi:nodetypes="ccccccc"
       id="path6363"
       d="m 6.5121808,40.939543 c 0,0 0.1359808,-0.472321 0.634577,-0.511681 l 33.8592122,0 c 0.679904,0 0.725231,0.669121 0.725231,0.669121 0,0 0.02127,-1.44242 -1.15723,-1.44242 l -32.8201988,0 c -0.9065384,0.07872 -1.2415914,0.694578 -1.2415914,1.28498 z"
       style="opacity:0.26404497;color:#000000;fill:#ffffff;fill-opacity:1;fill-rule:evenodd;stroke:none;stroke-width:1;marker:none;visibility:visible;display:inline;overflow:visible"
       inkscape:connector-curvature="0" />
    <path
       style="fill:#d40000;fill-opacity:1;stroke:#ffffff;stroke-width:1.70000005;stroke-linejoin:miter;stroke-miterlimit:4;stroke-opacity:1;stroke-dasharray:none"
       d="m 26.40625,17.78125 c -0.0699,-0.0027 -0.125999,0.03637 -0.1875,0.0625 -0.184503,0.07839 -0.303633,0.266016 -0.3125,0.5 l -0.125,2.96875 c -1.124246,0.118287 -2.259295,0.448489 -3.375,0.96875 -1.238378,0.577466 -2.294058,1.353548 -3.15625,2.25 L 16.8125,22.625 c -0.246589,-0.19148 -0.578386,-0.158503 -0.75,0.0625 -0.171613,0.221006 -0.121589,0.558521 0.125,0.75 l 2.40625,1.84375 c -1.77245,2.265013 -2.346012,5.113828 -1.21875,7.53125 0.09478,0.203263 0.229692,0.373814 0.34375,0.5625 l 16.1875,-7.5625 c -0.07123,-0.208658 -0.123967,-0.421737 -0.21875,-0.625 -1.172353,-2.514119 -3.89038,-3.912332 -6.90625,-3.90625 l 0.125,-2.875 c 0.01182,-0.311979 -0.220385,-0.614405 -0.5,-0.625 z m 10.6875,7.1875 c -0.258365,0.0118 -0.500367,0.07109 -0.75,0.1875 -0.998535,0.465624 -1.465624,1.626465 -1,2.625 l 3.144906,7.28125 c 0.550542,-0.242899 0.790198,-0.509902 1.068172,-0.724422 0.94187,-0.726863 1.248218,-0.965077 1.537885,-1.357021 -0.346293,-1.038556 -0.848573,-2.451321 -1.362692,-4.875 L 38.96875,26.09375 c -0.349218,-0.748901 -1.099905,-1.1604 -1.875,-1.125 z M 34,26.46875 18.09375,33.875 l 0.5,1.0625 0.125,0.3125 0.606057,0.982021 c 4.914198,0.11502 9.58727,0.21875 12.652505,0.21875 2.461495,0 4.334462,-0.418841 5.731057,-1.000964 L 38.036922,34.650578 35.25,29.125 34.5,27.5 z m -17.75,8.0625 c -0.256948,0.0079 -0.531616,0.07109 -0.78125,0.1875 -0.644887,0.300715 -0.866947,0.685338 -0.950771,1.344713 1.648576,0.04204 1.778307,0.0905 3.745292,0.137308 L 18.125,35.6875 C 17.775782,34.938599 17.020844,34.50753 16.25,34.53125 z"
       id="rect5365-8"
       inkscape:connector-curvature="0"
       sodipodi:nodetypes="csccsccscccccscccssccscccscccccscccccsscccs" />
    <g
       id="g4229">
      <path
         id="rect5365"
         d="M 34.0625 26.46875 L 18.125 33.90625 L 18.625 34.9375 L 18.78125 35.25 L 19.3125 36.40625 C 24.2176 36.520982 29.441298 36.625 32.5 36.625 C 34.983087 36.625 36.817807 36.097521 38.21875 35.375 L 37.9375 34.8125 L 35.28125 29.125 L 34.53125 27.53125 L 34.0625 26.46875 z "
         style="fill:#97c024;fill-opacity:1;stroke:none" />
      <path
         id="rect5394"
         d="M 16.28125 34.5625 C 16.02305 34.572156 15.749634 34.633594 15.5 34.75 C 14.865586 35.045832 14.466246 35.638811 14.375 36.28125 C 16.023035 36.323265 16.506145 36.32832 18.46875 36.375 L 18.15625 35.71875 C 17.807032 34.969849 17.05585 34.533533 16.28125 34.5625 z "
         style="fill:#97c024;fill-opacity:1;stroke:none" />
      <path
         id="rect5394-2"
         d="M 37.125 25 C 36.8668 25.009656 36.624634 25.071094 36.375 25.1875 C 35.376465 25.653124 34.940626 26.813965 35.40625 27.8125 L 38.78125 35.0625 C 39.105205 34.867207 39.415811 34.67842 39.6875 34.46875 C 40.62937 33.741887 41.022833 33.329444 41.3125 32.9375 C 40.966207 31.898944 40.420369 30.486179 39.90625 28.0625 L 39 26.15625 C 38.650782 25.407349 37.8996 24.971033 37.125 25 z "
         style="fill:#97c024;fill-opacity:1;stroke:none" />
      <g
         transform="matrix(0.90630778,-0.42261826,0.42261826,0.90630778,-1.2035996,29.947087)"
         id="g5481"
         style="stroke:none">
        <path
           inkscape:connector-curvature="0"
           style="fill:#97c024;fill-opacity:1;stroke:none"
           d="m 24.65625,3.0625 c -4.968725,0 -9,3.3092317 -9,7.40625 0,0.224276 0.03887,0.43704 0.0625,0.65625 l 17.875,0 c 0.02363,-0.21921 0.0625,-0.431974 0.0625,-0.65625 0,-4.0970183 -4.031275,-7.40625 -9,-7.40625 z"
           id="path5418" />
        <path
           sodipodi:type="arc"
           style="fill:#ffffff;fill-opacity:1;stroke:none"
           id="path5449"
           sodipodi:cx="21.37104"
           sodipodi:cy="8.3357286"
           sodipodi:rx="0.78918165"
           sodipodi:ry="0.77339804"
           d="m 22.160222,8.3357286 c 0,0.427136 -0.353329,0.7733981 -0.789182,0.7733981 -0.435853,0 -0.789181,-0.3462621 -0.789181,-0.7733981 0,-0.4271359 0.353328,-0.773398 0.789181,-0.773398 0.435853,0 0.789182,0.3462621 0.789182,0.773398 z"
           transform="matrix(1.0212245,0,0,1.0212245,-1.4154165,-1.4231952)" />
        <path
           sodipodi:type="arc"
           style="fill:#ffffff;fill-opacity:1;stroke:none"
           id="path5449-6"
           sodipodi:cx="21.37104"
           sodipodi:cy="8.3357286"
           sodipodi:rx="0.78918165"
           sodipodi:ry="0.77339804"
           d="m 22.160222,8.3357286 c 0,0.427136 -0.353329,0.7733981 -0.789182,0.7733981 -0.435853,0 -0.789181,-0.3462621 -0.789181,-0.7733981 0,-0.4271359 0.353328,-0.773398 0.789181,-0.773398 0.435853,0 0.789182,0.3462621 0.789182,0.773398 z"
           transform="matrix(1.0212245,0,0,1.0212245,6.7121839,-1.4238284)" />
        <rect
           style="fill:#97c024;fill-opacity:1;stroke:none"
           id="rect5423"
           width="1.0101534"
           height="5.0507627"
           x="15.824705"
           y="9.2116003"
           rx="0.50507671"
           transform="matrix(0.88965349,-0.45663625,0.45663625,0.88965349,0,0)"
           ry="0.56354231" />
        <rect
           style="fill:#97c024;fill-opacity:1;stroke:none"
           id="rect5423-6"
           width="1.0101534"
           height="5.0507627"
           x="-27.690969"
           y="-13.159358"
           rx="0.50507671"
           transform="matrix(-0.88965349,-0.45663625,-0.45663625,0.88965349,0,0)"
           ry="0.56354231" />
      </g>
    </g>
    <path
       inkscape:r_cy="true"
       inkscape:r_cx="true"
       transform="matrix(0.55579,0,0,0.36676817,12.302358,11.480414)"
       d="m 43.125,40.4375 a 19.5625,6.8125 0 1 1 -39.125,0 19.5625,6.8125 0 1 1 39.125,0 z"
       sodipodi:ry="6.8125"
       sodipodi:rx="19.5625"
       sodipodi:cy="40.4375"
       sodipodi:cx="23.5625"
       id="path3008"
       style="opacity:0.34649126;color:#000000;fill:url(#radialGradient2552);fill-opacity:1;fill-rule:evenodd;stroke:none;stroke-width:1;marker:none;visibility:visible;display:inline;overflow:visible"
       sodipodi:type="arc" />
    <g
       id="g1574"
       transform="matrix(0.93173444,-0.26158059,0.24965766,0.97623138,17.303994,-27.061356)"
       inkscape:r_cx="true"
       inkscape:r_cy="true">
      <path
         transform="translate(-29.75546,19)"
         sodipodi:nodetypes="cccccc"
         id="path2960"
         d="m 17.34116,32.5 5.625,-5.625 20.093749,-9.75 c 3.25,-1.25 5.1875,3.375 2.3125,5 L 25.34116,31.5 l -8,1 z"
         style="color:#000000;fill:#cb9022;fill-opacity:1;fill-rule:evenodd;stroke:#5c410c;stroke-width:0.93443578;stroke-linecap:butt;stroke-linejoin:miter;stroke-miterlimit:4;stroke-opacity:1;stroke-dasharray:none;stroke-dashoffset:0;marker:none;visibility:visible;overflow:visible"
         inkscape:r_cx="true"
         inkscape:r_cy="true"
         inkscape:connector-curvature="0" />
      <path
         transform="translate(-29.75546,19)"
         style="color:#000000;fill:url(#linearGradient2554);fill-opacity:1;fill-rule:evenodd;stroke:none;stroke-width:1;marker:none;visibility:visible;overflow:visible"
         d="m 38.330708,20 c 0,0 1.4375,0.09375 2,1.34375 0.579493,1.287761 0,2.65625 0,2.65625 l 5.03125,-2.46875 c 0,0 1.452032,-0.881367 0.65625,-2.84375 -0.784912,-1.935577 -2.6875,-1.15625 -2.6875,-1.15625 l -5,2.46875 z"
         id="path2964"
         sodipodi:nodetypes="czcczcc"
         inkscape:r_cx="true"
         inkscape:r_cy="true"
         inkscape:connector-curvature="0" />
      <path
         transform="translate(-29.75546,19)"
         sodipodi:nodetypes="czcczcc"
         id="path2962"
         d="m 38.330708,20 c 0,0 1.4375,0.09375 2,1.34375 0.579493,1.287761 0,2.65625 0,2.65625 l 2,-1 c 0,0 0.827032,-1.318867 0.21875,-2.6875 C 41.924458,18.90625 40.330708,19 40.330708,19 l -2,1 z"
         style="color:#000000;fill:url(#linearGradient2556);fill-opacity:1;fill-rule:evenodd;stroke:none;stroke-width:1;marker:none;visibility:visible;overflow:visible"
         inkscape:r_cx="true"
         inkscape:r_cy="true"
         inkscape:connector-curvature="0" />
      <path
         transform="translate(-29.75546,19)"
         sodipodi:nodetypes="cccc"
         id="path2982"
         d="m 18.768208,31.78125 4.5,-4.5 c 1.5,0.8125 2.28125,2.15625 1.875,3.71875 l -6.375,0.78125 z"
         style="color:#000000;fill:url(#radialGradient2558);fill-opacity:1;fill-rule:evenodd;stroke:none;stroke-width:1;marker:none;visibility:visible;overflow:visible"
         inkscape:r_cx="true"
         inkscape:r_cy="true"
         inkscape:connector-curvature="0" />
      <path
         transform="translate(-29.75546,19)"
         sodipodi:nodetypes="cccc"
         id="path2992"
         d="m 20.111958,30.375 -1.625,1.59375 2.34375,-0.3125 c 0.21875,-0.71875 -0.1875,-1.0625 -0.71875,-1.28125 z"
         style="color:#000000;fill:url(#linearGradient2560);fill-opacity:1;fill-rule:evenodd;stroke:none;stroke-width:1;marker:none;visibility:visible;overflow:visible"
         inkscape:r_cx="true"
         inkscape:r_cy="true"
         inkscape:connector-curvature="0" />
      <path
         transform="translate(-29.75546,19)"
         sodipodi:nodetypes="ccccc"
         id="path3002"
         d="m 23.268208,27.25 1.5625,1.25 15.38734,-7.31867 C 39.773616,20.325286 38.976281,20.096733 38.314669,20.019068 L 23.268208,27.25 z"
         style="color:#000000;fill:#ffffff;fill-opacity:0.36363639;fill-rule:evenodd;stroke:none;stroke-width:1;marker:none;visibility:visible;overflow:visible"
         inkscape:r_cx="true"
         inkscape:r_cy="true"
         inkscape:connector-curvature="0" />
      <path
         transform="translate(-29.75546,19)"
         sodipodi:nodetypes="ccccc"
         id="path3004"
         d="m 25.143208,31.0625 0.1875,-0.75 15.23109,-7.1296 c 0,0 -0.11016,0.613627 -0.215879,0.74935 L 25.143208,31.0625 z"
         style="color:#000000;fill:#000000;fill-opacity:0.36363639;fill-rule:evenodd;stroke:none;stroke-width:1;marker:none;visibility:visible;overflow:visible"
         inkscape:r_cx="true"
         inkscape:r_cy="true"
         inkscape:connector-curvature="0" />
    </g>
  </g>
</svg>
